<?xml version="1.0" standalone="yes"?>
<svg xmlns="http://www.w3.org/2000/svg" width="1224" height="816">
<path style="fill:#00ebb4; stroke:none;" d="M93 132L93 532L179 532L179 132L93 132M282 132.428C253.715 136.48 228.328 157.023 218.692 184C209.983 208.384 214 237.457 214 263L214 413C214 441.592 210.025 472.263 227.439 497C240.237 515.18 261.159 530.31 284 531.911C336.764 535.609 391.092 532 444 532L512 532C523.717 532 536.413 533.371 548 531.561C577.029 527.027 601.83 504.418 611.304 477C619.425 453.499 615 424.564 615 400L615 248C615 218.695 618.33 190.054 599.844 165C576.407 133.235 544.854 132 509 132L358 132C333.341 132 306.401 128.932 282 132.428M677 132L677 532L763 532L763 266C781.334 279.186 795.429 302.894 810.13 320C840.263 355.06 874.921 389.861 901 428L915.728 413L943.411 380L1040 265L1041 296L1041 352L1041 532L1128 532L1128 132L1063 132C1055.9 132 1043.45 129.616 1037.09 133.028C1032.61 135.432 1029.12 141.167 1025.92 145L1002.59 173C980.355 199.71 957.999 226.305 935.753 253C925.092 265.793 914.525 283.272 901 293L870.414 255L802.414 174L778.804 146L765.985 132.603L739 132L677 132z"/>
<path style="fill: #444444; stroke:none;" d="M285 145.425C262.583 148.477 240.721 162.653 233.206 185C226.781 204.106 229 225.138 229 245L229 348C229 373.874 224.327 404.759 240.49 427C257.745 450.744 281.001 453 308 453L426 453C445.084 453 466.147 455.505 485 452.561C507.002 449.125 526.649 433.055 534.136 412C540.977 392.761 538 370.109 538 350L538 235C538 211.981 539.815 189.434 525.1 170C507.088 146.21 482.287 145 455 145L343 145C324.089 145 303.737 142.875 285 145.425z"/>
<path style="fill:#00ebb4; stroke:none;" d="M322 210.468C310.203 212.693 300.47 222.531 297.479 234C294.576 245.133 296 257.583 296 269L296 333C296 346.22 294.247 360.535 302.221 371.996C310.967 384.568 323.993 386 338 386L410 386C421.773 386 435.491 387.924 447 385.32C459.272 382.543 468.802 373.091 472.073 361C474.893 350.574 473 337.745 473 327L473 261C473 248.06 474.893 233.932 466.471 223C455.98 209.384 442.555 210 427 210L357 210C345.749 210 333.07 208.379 322 210.468M100 645L100 740L107 740L107 645L100 645M481 645.428C471.975 646.721 463.439 649.492 456 654.927C415.339 684.637 447.424 746.414 494 739.7C553.005 731.194 539.67 637.027 481 645.428M746 645L746 740L752 740L752 659L753 659C758.074 680.364 770.539 701.788 779.15 722C781.253 726.938 783.912 740.344 790.911 739.793C796.981 739.315 799.857 725.68 801.85 721C810.291 701.183 821.317 680.779 827 660L828 660L828 740L834 740L834 645C823.537 645.125 821.705 657.719 818.15 666C808.925 687.494 800.999 710.368 790 731C780.933 708.898 771.35 686.986 762 665C758.394 656.52 756.689 645.127 746 645M386 647L386 670C380.738 670.019 377.46 670.093 377 676L386 676C386 699.198 377.432 735.263 407 741L407 735C385.247 731.06 393 692.237 393 676L408 676L408 670L393 670L393 647L386 647z"/>
<path style="fill:#444444; stroke:none;" d="M478 652.464C426.548 661.741 439.904 742.41 491 733.385C498.814 732.005 505.725 729.475 511.996 724.482C544.821 698.348 518.072 645.24 478 652.464z"/>
<path style="fill:#00ebb4; stroke:none;" d="M127 689L126 689L126 671L119 671L119 740L126 740C126 726.73 122.763 708.445 127.764 696C136.592 674.033 165.864 670.476 178.532 691C186.759 704.331 183 724.927 183 740L189 740C189 722.595 193.372 699.028 182.945 684.001C169.683 664.887 135.862 666.125 127 689M281 731C291.512 720.488 302.442 710.428 313 699.996C316.184 696.85 323.508 691.782 323.963 687C325.008 676.017 303.721 670.883 296 670.594C271.862 669.692 254.31 694.489 262.101 717C268.267 734.814 287.081 743.918 305 739.24C310.571 737.786 323.793 732.14 323.793 725.063C323.793 722.365 320.993 721.79 318.995 722.751C315.274 724.541 312.639 728.388 309 730.468C299.558 735.863 290.738 733.657 281 731M340 722L334 722C334.506 743.501 365.807 747.347 370.952 726C377.034 700.763 342.393 708.845 340.268 690C338.244 672.05 362.135 673.709 366 689L372 689C370.481 683.147 369.272 677.407 363.96 673.703C353.452 666.377 336.675 672.002 334.329 685C329.705 710.619 363.838 701.955 365.743 721C367.467 738.239 342.911 738.07 340 722M645 690L644 690L644 671L638 671L638 740L644 740C644 725.334 640.58 705.095 648.479 692C660.842 671.505 689.646 672.692 699.471 695C705.147 707.885 702 726.191 702 740L708 740C708 722.987 712.183 699.932 702.451 685.004C688.503 663.607 654.949 666.947 645 690M875 670.515C830.201 673.545 831.911 742.912 877 740.625C922.508 738.316 920.357 667.446 875 670.515M927 689L926 689L926 671L919 671L919 740L926 740C926 726.672 922.816 708.524 927.761 696C936.465 673.954 965.907 670.544 978.532 691C986.759 704.331 983 724.927 983 740L989 740C989 721.991 993.379 698.406 982.211 683.004C968.778 664.478 935.461 667.006 927 689M1063 724L1059 721L1058 721C1045.55 733.35 1035.44 735.485 1019 731C1027.37 719.111 1040.57 709.186 1051 699.015C1054.05 696.037 1061.63 691.698 1061.83 686.999C1062.16 679.635 1048.73 673.488 1043 671.927C1025.22 667.089 1006.74 675.646 999.927 693C984.804 731.492 1042.24 759.824 1063 724M193 671C198.022 689.362 207.549 707.48 215 725C218.306 732.773 219.342 740.886 229 741L258 671C249.482 671.279 247.948 679.121 245.001 686C238.628 700.872 232.999 716.944 225 731C219.779 715.663 212.275 701.018 206.201 686C203.206 678.595 202.042 671.108 193 671M536 671C542.331 689.714 551.151 707.709 558.603 726C560.448 730.527 562.986 742.37 569.791 740.663C573.333 739.774 574.457 734.923 575.719 732C579.028 724.335 581.869 716.259 586 709C589.121 717.044 592.46 725.064 595.85 733C596.98 735.644 598.044 739.854 601.22 740.663C608.052 742.403 610.655 730.497 612.579 726C620.279 708.007 630.62 689.82 636 671C626.963 671.108 625.773 678.671 622.576 686C615.865 701.384 608.442 716.506 602 732C598.155 723.781 589.625 710.108 589.769 701C589.915 691.779 598.497 679.537 602 671C591.634 671.123 588.109 684.122 586 693L585 693L577 671L570 671L581.292 700L569 731C561.108 717.427 555.686 701.554 549.799 687C546.682 679.292 545.451 671.112 536 671M1066 671L1085.85 719L1094.14 740L1086 763C1095.56 762.686 1097.89 749.605 1101.15 742C1107.88 726.321 1114.63 710.653 1121.42 695C1124.77 687.288 1129.52 679.313 1131 671C1122.82 671.268 1121.43 678.347 1118.58 685C1112.09 700.154 1102.81 715.959 1099 732C1091.87 716.933 1085.88 701.303 1079.28 686C1076.11 678.644 1075.1 671.108 1066 671z"/>
<path style="fill:#444444; stroke:none;" d="M317 688C301.926 666.793 268.723 678.163 266.174 703C265.548 709.099 268.505 725.793 277.004 725.793C280.812 725.793 284.578 720.421 287 718L299 706L317 688M870 677.518C833.663 685.282 846.765 741.789 883 733.471C919.047 725.196 905.863 669.855 870 677.518M1055 688C1040.57 667.947 1005.95 676.716 1004.09 702C1003.68 707.525 1005.35 728.09 1015 725.654C1022.76 723.696 1031.06 710.527 1037 705.286C1043.25 699.769 1049.1 693.897 1055 688z"/>
</svg>
